<svg width="2200" height="2100" viewBox="0 0 109 135" fill="none" xmlns="http://www.w3.org/2000/svg">
<path d="M14.6521 44.8325L44.0792 36.7084C51.1121 34.7667 57.6869 34.4122 63.8035 35.6449C69.9648 36.7989 75.1988 39.4039 79.5055 43.4601C83.874 47.4992 86.9523 52.7576 88.7407 59.2353C90.529 65.713 90.5845 71.8059 88.9071 77.5141C87.2914 83.2053 84.1438 88.1576 79.4643 92.3708C74.8294 96.5054 68.9956 99.5434 61.9627 101.485L32.5355 109.609L14.6521 44.8325ZM57.8245 89.3819C64.3022 87.5935 68.9595 84.3823 71.7966 79.7482C74.6783 75.0353 75.2676 69.5943 73.5644 63.4251C71.8612 57.2559 68.5724 52.9187 63.698 50.4136C58.8682 47.8297 53.2145 47.432 46.7368 49.2203L33.0411 53.0014L44.1289 93.1629L57.8245 89.3819Z" fill="#AE8F3A"/>
<path d="M32.26 87.24C31.1533 87.24 30.08 87.0933 29.04 86.8C28.0133 86.4933 27.1867 86.1 26.56 85.62L27.66 83.18C28.26 83.62 28.9733 83.9733 29.8 84.24C30.6267 84.5067 31.4533 84.64 32.28 84.64C33.2 84.64 33.88 84.5067 34.32 84.24C34.76 83.96 34.98 83.5933 34.98 83.14C34.98 82.8067 34.8467 82.5333 34.58 82.32C34.3267 82.0933 33.9933 81.9133 33.58 81.78C33.18 81.6467 32.6333 81.5 31.94 81.34C30.8733 81.0867 30 80.8333 29.32 80.58C28.64 80.3267 28.0533 79.92 27.56 79.36C27.08 78.8 26.84 78.0533 26.84 77.12C26.84 76.3067 27.06 75.5733 27.5 74.92C27.94 74.2533 28.6 73.7267 29.48 73.34C30.3733 72.9533 31.46 72.76 32.74 72.76C33.6333 72.76 34.5067 72.8667 35.36 73.08C36.2133 73.2933 36.96 73.6 37.6 74L36.6 76.46C35.3067 75.7267 34.0133 75.36 32.72 75.36C31.8133 75.36 31.14 75.5067 30.7 75.8C30.2733 76.0933 30.06 76.48 30.06 76.96C30.06 77.44 30.3067 77.8 30.8 78.04C31.3067 78.2667 32.0733 78.4933 33.1 78.72C34.1667 78.9733 35.04 79.2267 35.72 79.48C36.4 79.7333 36.98 80.1333 37.46 80.68C37.9533 81.2267 38.2 81.9667 38.2 82.9C38.2 83.7 37.9733 84.4333 37.52 85.1C37.08 85.7533 36.4133 86.2733 35.52 86.66C34.6267 87.0467 33.54 87.24 32.26 87.24ZM48.1339 86.48C47.8272 86.7067 47.4472 86.88 46.9939 87C46.5539 87.1067 46.0872 87.16 45.5939 87.16C44.3139 87.16 43.3206 86.8333 42.6139 86.18C41.9206 85.5267 41.5739 84.5667 41.5739 83.3V78.88H39.9139V76.48H41.5739V73.86H44.6939V76.48H47.3739V78.88H44.6939V83.26C44.6939 83.7133 44.8072 84.0667 45.0339 84.32C45.2739 84.56 45.6072 84.68 46.0339 84.68C46.5272 84.68 46.9472 84.5467 47.2939 84.28L48.1339 86.48ZM55.6733 87.16C54.5399 87.16 53.5199 86.9267 52.6133 86.46C51.7199 85.98 51.0199 85.32 50.5133 84.48C50.0066 83.64 49.7533 82.6867 49.7533 81.62C49.7533 80.5533 50.0066 79.6 50.5133 78.76C51.0199 77.92 51.7199 77.2667 52.6133 76.8C53.5199 76.32 54.5399 76.08 55.6733 76.08C56.8066 76.08 57.8199 76.32 58.7133 76.8C59.6066 77.2667 60.3066 77.92 60.8133 78.76C61.3199 79.6 61.5733 80.5533 61.5733 81.62C61.5733 82.6867 61.3199 83.64 60.8133 84.48C60.3066 85.32 59.6066 85.98 58.7133 86.46C57.8199 86.9267 56.8066 87.16 55.6733 87.16ZM55.6733 84.6C56.4733 84.6 57.1266 84.3333 57.6333 83.8C58.1533 83.2533 58.4133 82.5267 58.4133 81.62C58.4133 80.7133 58.1533 79.9933 57.6333 79.46C57.1266 78.9133 56.4733 78.64 55.6733 78.64C54.8733 78.64 54.2133 78.9133 53.6933 79.46C53.1733 79.9933 52.9133 80.7133 52.9133 81.62C52.9133 82.5267 53.1733 83.2533 53.6933 83.8C54.2133 84.3333 54.8733 84.6 55.6733 84.6ZM67.6388 77.66C68.0121 77.14 68.5121 76.7467 69.1388 76.48C69.7788 76.2133 70.5121 76.08 71.3388 76.08V78.96C70.9921 78.9333 70.7588 78.92 70.6388 78.92C69.7454 78.92 69.0454 79.1733 68.5388 79.68C68.0321 80.1733 67.7788 80.92 67.7788 81.92V87H64.6588V76.24H67.6388V77.66ZM84.6363 81.66C84.6363 81.7 84.6163 81.98 84.5763 82.5H76.4363C76.5829 83.1667 76.9296 83.6933 77.4763 84.08C78.0229 84.4667 78.7029 84.66 79.5163 84.66C80.0763 84.66 80.5696 84.58 80.9963 84.42C81.4363 84.2467 81.8429 83.98 82.2163 83.62L83.8763 85.42C82.8629 86.58 81.3829 87.16 79.4363 87.16C78.2229 87.16 77.1496 86.9267 76.2163 86.46C75.2829 85.98 74.5629 85.32 74.0563 84.48C73.5496 83.64 73.2963 82.6867 73.2963 81.62C73.2963 80.5667 73.5429 79.62 74.0363 78.78C74.5429 77.9267 75.2296 77.2667 76.0963 76.8C76.9763 76.32 77.9563 76.08 79.0363 76.08C80.0896 76.08 81.0429 76.3067 81.8963 76.76C82.7496 77.2133 83.4163 77.8667 83.8963 78.72C84.3896 79.56 84.6363 80.54 84.6363 81.66ZM79.0563 78.44C78.3496 78.44 77.7563 78.64 77.2763 79.04C76.7963 79.44 76.5029 79.9867 76.3963 80.68H81.6963C81.5896 80 81.2963 79.46 80.8163 79.06C80.3363 78.6467 79.7496 78.44 79.0563 78.44Z" fill="#F0EBEB"/>
</svg>
